<?xml version="1.0" standalone="no"?>
<!DOCTYPE svg PUBLIC "-//W3C//DTD SVG 20010904//EN"
 "http://www.w3.org/TR/2001/REC-SVG-20010904/DTD/svg10.dtd">
<svg version="1.0" xmlns="http://www.w3.org/2000/svg"
 width="150.000000pt" height="150.000000pt" viewBox="0 0 150.000000 150.000000"
 preserveAspectRatio="xMidYMid meet">
<metadata>
Created by potrace 1.14, written by Peter Selinger 2001-2017
</metadata>
<g transform="translate(0.000000,150.000000) scale(0.100000,-0.100000)"
fill="#000000" stroke="none">
<path d="M0 750 l0 -750 750 0 750 0 0 750 0 750 -750 0 -750 0 0 -750z m840
649 c24 -11 59 -31 77 -45 45 -34 95 -54 138 -54 35 0 35 0 35 -45 0 -84 46
-145 108 -145 17 0 20 -9 24 -69 3 -60 8 -76 36 -113 52 -69 73 -121 73 -187
1 -66 -26 -139 -66 -181 -32 -34 -45 -72 -45 -133 l0 -52 -49 -18 c-57 -20
-81 -58 -81 -130 l0 -44 -48 -7 c-29 -4 -70 -20 -103 -40 -165 -105 -223 -108
-355 -19 -65 44 -112 63 -156 63 -17 0 -27 4 -23 10 3 5 1 36 -4 67 -12 66
-40 98 -96 109 l-35 6 0 63 c0 57 -4 68 -43 126 -51 75 -67 116 -67 173 0 65
19 117 63 176 36 48 42 62 47 124 l5 70 37 9 c49 12 87 57 90 105 1 20 2 46 2
57 1 16 10 21 48 25 28 4 67 19 99 40 137 87 200 100 289 59z"/>
<path d="M682 1360 c-12 -5 -49 -28 -81 -50 -33 -22 -80 -45 -104 -52 -43 -11
-46 -14 -51 -53 -9 -59 -41 -104 -86 -123 -34 -14 -40 -22 -40 -47 0 -51 -18
-96 -62 -159 -36 -52 -43 -69 -46 -122 -5 -68 13 -115 68 -190 23 -29 33 -55
37 -96 5 -52 7 -56 43 -72 46 -20 70 -54 85 -120 11 -47 13 -50 56 -60 24 -7
73 -32 109 -56 57 -39 73 -45 130 -48 64 -4 66 -3 144 48 45 29 97 55 120 59
40 6 41 8 48 56 9 61 33 95 86 120 41 19 42 20 42 71 0 43 6 60 35 100 53 74
69 113 68 174 0 59 -10 84 -67 169 -29 43 -36 62 -36 101 0 47 -1 49 -44 70
-53 25 -76 57 -84 118 -7 44 -9 45 -57 61 -27 9 -70 30 -95 47 -92 64 -155 79
-218 54z m-28 -190 c7 0 35 7 62 15 44 13 73 13 142 -1 12 -2 22 -9 22 -14 0
-6 -8 -5 -19 2 -15 9 -32 8 -78 -4 -82 -22 -173 -9 -173 24 0 5 7 2 16 -6 8
-9 21 -16 28 -16z m-89 -55 l-30 -25 28 10 c35 12 57 13 57 1 0 -5 -13 -11
-29 -14 -15 -3 -42 -17 -59 -32 -33 -27 -57 -81 -41 -90 5 -4 9 0 9 7 1 10 4
9 13 -2 18 -22 36 -23 73 -5 37 17 46 53 20 74 -19 16 -66 -13 -66 -40 0 -19
-24 -26 -34 -10 -7 11 32 55 61 70 28 14 95 14 127 -1 14 -6 33 -22 42 -36
l16 -24 28 30 c38 42 98 57 146 37 62 -26 133 -85 130 -109 -4 -36 -36 -74
-89 -107 -44 -27 -58 -31 -101 -26 -41 4 -55 11 -82 40 -27 29 -34 33 -39 19
-9 -28 -68 -62 -109 -62 -20 0 -55 9 -77 21 -45 22 -48 36 -5 19 35 -13 93
-13 101 0 3 6 -1 13 -9 16 -25 9 -19 26 7 19 l22 -6 -22 17 c-27 19 -30 36 -6
27 11 -4 14 -3 9 5 -13 22 -65 14 -91 -13 -16 -18 -24 -22 -27 -13 -4 10 -8
10 -21 -1 -15 -11 -17 -11 -17 2 0 8 -7 20 -15 27 -19 16 -19 82 0 119 18 35
71 81 93 81 12 0 9 -7 -13 -25z m156 -358 c-6 -6 -11 -33 -11 -59 0 -41 3 -48
20 -48 11 0 19 4 18 9 -2 5 2 10 7 10 6 1 11 -10 13 -24 3 -24 1 -25 -52 -25
-31 0 -56 5 -56 10 0 6 5 10 10 10 6 0 10 25 10 55 0 30 -4 55 -10 55 -20 0
-9 19 13 22 32 6 51 -2 38 -15z m-245 -4 c-8 -20 13 -88 24 -76 14 15 29 73
19 73 -5 0 -9 5 -9 10 0 6 16 10 36 10 33 0 35 -2 23 -16 -8 -10 -23 -42 -35
-73 -29 -77 -46 -77 -75 1 -12 35 -30 68 -38 75 -13 10 -10 12 23 13 31 0 37
-3 32 -17z m174 7 c0 -5 -4 -10 -10 -10 -5 0 -10 -22 -10 -49 0 -28 5 -53 10
-56 20 -12 9 -25 -20 -25 -29 0 -38 9 -23 24 10 10 11 106 1 106 -4 0 -8 5 -8
10 0 6 14 10 30 10 17 0 30 -4 30 -10z m192 -2 c-7 -7 -12 -34 -12 -60 0 -41
3 -48 20 -48 11 0 19 5 18 11 -2 6 3 14 10 16 7 3 12 -4 12 -16 0 -12 5 -21
11 -21 14 0 42 68 42 103 0 23 4 27 29 27 15 0 28 -4 28 -9 0 -7 29 -74 58
-133 2 -5 -11 -8 -28 -8 -27 0 -30 3 -25 20 5 17 2 20 -25 20 -26 0 -30 -3
-25 -19 5 -18 0 -19 -85 -20 -53 0 -90 3 -90 9 0 6 5 10 10 10 6 0 10 25 10
55 0 30 -4 55 -10 55 -5 0 -10 5 -10 10 0 6 17 10 37 10 29 0 34 -3 25 -12z
m-348 -164 c9 -8 16 -11 16 -6 0 13 27 23 45 16 20 -8 19 -53 -1 -61 -9 -3
-25 -1 -35 5 -11 7 -20 8 -24 2 -3 -6 -16 -10 -29 -10 -19 0 -21 4 -18 35 5
38 21 45 46 19z m163 -24 c9 -16 20 -30 23 -30 3 0 14 14 23 30 14 23 25 30
50 30 24 0 28 -3 19 -12 -7 -7 -12 -34 -12 -60 0 -41 3 -48 19 -48 22 0 58 79
48 105 -5 11 1 15 22 15 26 0 31 -6 51 -59 20 -55 40 -78 54 -64 11 12 6 99
-6 112 -11 10 -1 11 47 9 58 -3 60 -4 63 -32 2 -16 -2 -32 -8 -36 -14 -9 3
-50 20 -50 6 0 10 -4 10 -10 0 -5 -9 -10 -21 -10 -13 0 -23 10 -30 30 -12 34
-39 41 -39 10 0 -11 5 -20 10 -20 6 0 10 -4 10 -10 0 -6 -29 -10 -66 -10 -61
0 -65 1 -59 20 5 17 2 20 -25 20 -27 0 -30 -3 -25 -20 6 -19 2 -20 -59 -20
-37 0 -66 4 -66 10 0 6 5 10 10 10 6 0 10 17 10 38 l-1 37 -18 -22 c-11 -13
-25 -23 -31 -23 -6 0 -20 10 -31 23 l-18 22 -1 -37 c0 -21 5 -38 10 -38 6 0
10 -4 10 -10 0 -5 -16 -10 -35 -10 -19 0 -35 5 -35 10 0 6 5 10 10 10 14 0 12
94 -2 108 -9 9 -5 12 19 12 25 0 36 -7 50 -30z m-89 -172 c-2 -13 -7 -23 -13
-23 -5 0 -11 10 -13 23 -2 15 2 22 13 22 11 0 15 -7 13 -22z m38 10 c0 -7 4
-13 9 -13 6 0 9 6 8 14 -1 10 2 10 10 2 8 -8 7 -15 -3 -26 -19 -18 -46 -4 -37
19 8 19 15 21 13 4z m76 -22 c7 4 8 2 4 -5 -11 -17 -26 -3 -25 22 2 22 2 22 6
-1 3 -13 9 -19 15 -16z m18 24 c0 -5 -2 -10 -4 -10 -3 0 -8 5 -11 10 -3 6 -1
10 4 10 6 0 11 -4 11 -10z m47 4 c-3 -3 -12 -4 -19 -1 -8 3 -5 6 6 6 11 1 17
-2 13 -5z m30 -31 c-3 -10 -5 -4 -5 12 0 17 2 24 5 18 2 -7 2 -21 0 -30z m73
12 c0 -17 -30 -29 -43 -16 -6 6 -2 9 9 8 12 -1 19 4 18 15 -1 10 2 15 7 12 5
-3 9 -11 9 -19z m42 -9 c7 4 8 2 4 -5 -11 -17 -26 -3 -25 22 2 22 2 22 6 -1 3
-13 9 -19 15 -16z m59 25 c-9 -6 -10 -11 -2 -15 12 -8 6 -26 -10 -26 -5 0 -9
11 -9 25 0 17 5 25 18 25 13 0 14 -2 3 -9z m-270 -106 c81 14 165 15 183 2 14
-10 9 -12 -31 -14 -27 -1 -79 -4 -117 -7 -74 -5 -106 4 -106 31 0 15 2 15 13
-2 12 -15 21 -17 58 -10z"/>
<path d="M745 1180 c-13 -6 -15 -9 -5 -9 8 0 22 4 30 9 18 12 2 12 -25 0z"/>
<path d="M638 1010 c2 -22 6 -40 8 -40 2 0 19 11 39 24 l36 24 -23 16 c-12 9
-32 16 -43 16 -18 0 -20 -5 -17 -40z"/>
<path d="M826 1042 c-6 -10 16 -54 28 -56 19 -2 30 32 17 48 -14 17 -37 21
-45 8z"/>
<path d="M889 1031 c6 -10 7 -21 4 -25 -3 -3 -2 -6 4 -6 11 0 23 22 23 41 0 5
-9 9 -20 9 -17 0 -19 -3 -11 -19z"/>
<path d="M927 1008 c-12 -20 -14 -34 -8 -42 5 -6 9 -35 8 -64 -2 -28 1 -52 4
-52 11 0 72 52 83 70 6 8 11 24 11 35 2 19 -3 25 -55 64 l-26 19 -17 -30z m61
-41 c2 -12 -3 -17 -17 -17 -12 0 -21 6 -21 13 0 31 32 34 38 4z"/>
<path d="M786 1004 c-4 -9 -4 -19 -2 -21 8 -8 26 8 26 23 0 19 -16 18 -24 -2z"/>
<path d="M686 974 c-22 -21 -13 -32 24 -26 21 3 30 10 30 23 0 24 -32 25 -54
3z"/>
<path d="M807 972 c-13 -14 -13 -20 -2 -36 17 -22 35 -13 35 19 0 31 -14 39
-33 17z"/>
<path d="M860 953 c0 -10 7 -26 14 -36 12 -15 15 -15 26 -3 17 22 8 51 -18 54
-16 3 -22 -2 -22 -15z"/>
<path d="M770 933 c0 -10 4 -24 9 -32 13 -21 24 5 11 29 -13 25 -20 26 -20 3z"/>
<path d="M692 913 c2 -10 12 -18 23 -18 11 0 21 8 23 18 3 13 -3 17 -23 17
-20 0 -26 -4 -23 -17z"/>
<path d="M821 898 c-20 -18 -21 -22 -8 -36 21 -20 47 -8 47 22 0 34 -13 39
-39 14z"/>
<path d="M876 865 c-13 -19 -13 -25 -3 -25 17 0 37 20 37 37 0 21 -16 15 -34
-12z"/>
<path d="M680 865 c-14 -16 -3 -20 19 -6 8 5 9 11 3 15 -5 3 -15 -1 -22 -9z"/>
<path d="M967 710 c-4 -15 0 -20 13 -20 13 0 17 5 13 20 -3 11 -9 20 -13 20
-4 0 -10 -9 -13 -20z"/>
<path d="M531 591 c-15 -10 -8 -41 9 -41 15 0 25 29 14 40 -5 5 -15 5 -23 1z"/>
<path d="M462 574 c4 -21 22 -23 26 -1 2 10 -3 17 -13 17 -10 0 -15 -6 -13
-16z"/>
<path d="M990 560 c0 -23 22 -27 39 -7 13 16 5 27 -21 27 -11 0 -18 -7 -18
-20z"/>
<path d="M847 540 c-4 -15 0 -20 13 -20 13 0 17 5 13 20 -3 11 -9 20 -13 20
-4 0 -10 -9 -13 -20z"/>
<path d="M551 394 c0 -11 3 -14 6 -6 3 7 2 16 -1 19 -3 4 -6 -2 -5 -13z"/>
<path d="M735 300 c-13 -6 -15 -9 -5 -9 8 0 22 4 30 9 18 12 2 12 -25 0z"/>
</g>
</svg>
